#!OML:ASF H:\Dans Jumps\Project 1\Capture day 1\Session 1\subject.ASF
:FULLY-SPECIFIED
:DEGREES
575
root 0.557612 17.7148 2.27515 6.36694 -0.692581 -1.65613
lowerback 0.333622 -0.397384 -0.517427
upperback 3.22054 -0.56586 1.62829
thorax 3.14213 -0.321713 1.9506
lowerneck -12.0602 0.154012 -1.85139
upperneck 36.5173 0.25197 1.27673
head 14.5988 0.0170359 0.893907
rclavicle -2.73329e-015 9.14409e-015
rhumerus -21.6953 -4.63 -85.0963
rradius 35.3957
rwrist 22.5756
rhand -19.6443 -26.2169
rfingers 7.12502
rthumb 6.68319 -56.0914
lclavicle -2.73329e-015 9.14409e-015
lhumerus -14.935 -7.27821 88.2775
lradius 27.947
lwrist 12.361
lhand -26.5063 -5.80867
lfingers 7.12502
lthumb 0.0567507 24.1711
rfemur -16.8618 -2.67777 19.9623
rtibia 22.6541
rfoot -10.8644 -2.21116
rtoes 13.6145
lfemur -15.5243 8.1995 -17.7702
ltibia 20.1712
lfoot -8.49597 4.18201
ltoes -1.63749
576
root 0.559379 17.7146 2.27642 6.34817 -0.705303 -1.65474
lowerback 0.316 -0.398732 -0.511693
upperback 3.21596 -0.567851 1.63164
thorax 3.14739 -0.322606 1.95067
lowerneck -12.0572 0.153864 -1.84727
upperneck 36.5309 0.253678 1.26732
head 14.6046 0.0169163 0.889678
rclavicle 1.68967e-015 -5.36719e-015
rhumerus -21.6557 -4.57613 -85.1191
rradius 35.4866
rwrist 22.5169
rhand -19.6837 -26.2289
rfingers 7.12502
rthumb 6.6452 -56.1047
lclavicle 1.68967e-015 -5.36719e-015
lhumerus -14.8911 -7.30562 88.296
lradius 27.9885
lwrist 12.3949
lhand -26.5006 -5.79558
lfingers 7.12502
lthumb 0.0622908 24.1842
rfemur -16.8361 -2.65861 19.9519
rtibia 22.6487
rfoot -10.8639 -2.22223
rtoes 13.612
lfemur -15.4942 8.20307 -17.7745
ltibia 20.1662
lfoot -8.49564 4.18915
ltoes -1.62418
577
root 0.561385 17.7145 2.27776 6.32731 -0.712992 -1.65422
lowerback 0.301983 -0.400325 -0.509281
upperback 3.21189 -0.570235 1.63958
thorax 3.15125 -0.323854 1.95736
lowerneck -12.0473 0.151555 -1.85424
upperneck 36.5392 0.251593 1.26767
head 14.6062 0.0150266 0.890779
rclavicle 3.8266e-015 1.2921e-014
rhumerus -21.6274 -4.53241 -85.129
rradius 35.5584
rwrist 22.4631
rhand -19.7323 -26.2428
rfingers 7.12502
rthumb 6.59829 -56.12
lclavicle 3.8266e-015 1.2921e-014
lhumerus -14.8639 -7.34042 88.3276
lradius 28.0124
lwrist 12.4227
lhand -26.5002 -5.78774
lfingers 7.12502
lthumb 0.0625901 24.192
rfemur -16.8065 -2.64384 19.9419
rtibia 22.6419
rfoot -10.8632 -2.23292
rtoes 13.6177
lfemur -15.4615 8.20093 -17.7781
ltibia 20.1597
lfoot -8.49641 4.19707
ltoes -1.61461
578
root 0.563363 17.7144 2.27926 6.30364 -0.719388 -1.65563
lowerback 0.290078 -0.402333 -0.504712
upperback 3.20831 -0.573205 1.64755
thorax 3.15444 -0.325334 1.96287
lowerneck -12.0331 0.148066 -1.86473
upperneck 36.5465 0.247287 1.27168
head 14.6065 0.0121905 0.893638
rclavicle -1.39149e-015 1.31198e-014
rhumerus -21.6093 -4.50101 -85.1338
rradius 35.606
rwrist 22.4234
rhand -19.7747 -26.2632
rfingers 7.12502
rthumb 6.55733 -56.1417
lclavicle -1.39149e-015 1.31198e-014
lhumerus -14.8549 -7.37429 88.363
lradius 28.0183
lwrist 12.4369
lhand -26.5227 -5.82387
lfingers 7.12502
lthumb 0.0409254 24.1559
rfemur -16.7716 -2.63134 19.9343
rtibia 22.6333
rfoot -10.8631 -2.24346
rtoes 13.6112
lfemur -15.4243 8.20013 -17.7794
ltibia 20.1521
lfoot -8.49946 4.20329
ltoes -1.60972
579
root 0.565395 17.7143 2.28101 6.27623 -0.723435 -1.6564
lowerback 0.280095 -0.405072 -0.50054
upperback 3.20621 -0.577151 1.65538
thorax 3.1581 -0.327321 1.96844
lowerneck -12.0112 0.144586 -1.87843
upperneck 36.5494 0.242629 1.27872
head 14.6029 0.00919701 0.898178
rclavicle -4.12478e-015 1.61016e-014
rhumerus -21.5994 -4.4874 -85.1332
rradius 35.6275
rwrist 22.4072
rhand -19.8128 -26.2938
rfingers 7.12502
rthumb 6.52052 -56.1734
lclavicle -4.12478e-015 1.61016e-014
lhumerus -14.8639 -7.40943 88.4033
lradius 28.0081
lwrist 12.4393
lhand -26.5631 -5.87058
lfingers 7.12502
lthumb 0.00189235 24.1092
rfemur -16.73 -2.62413 19.9259
rtibia 22.6229
rfoot -10.8645 -2.25114
rtoes 13.5984
lfemur -15.3806 8.19919 -17.7813
ltibia 20.142
lfoot -8.50486 4.20844
ltoes -1.61082
580
root 0.567232 17.7143 2.28287 6.25613 -0.728694 -1.65681
lowerback 0.260398 -0.409407 -0.492605
upperback 3.2042 -0.583212 1.6589
thorax 3.16733 -0.330227 1.96733
lowerneck -11.9947 0.14399 -1.88984
upperneck 36.5581 0.241456 1.2864
head 14.6032 0.00801439 0.903204
rclavicle 6.4605e-016 -1.39149e-015
rhumerus -21.5911 -4.49521 -85.1305
rradius 35.6199
rwrist 22.4251
rhand -19.8056 -26.2997
rfingers 7.12502
rthumb 6.5275 -56.1791
lclavicle 6.4605e-016 -1.39149e-015
lhumerus -14.8788 -7.42697 88.4366
lradius 27.976
lwrist 12.4366
lhand -26.57 -5.89522
lfingers 7.12502
lthumb -0.00482084 24.0845
rfemur -16.6955 -2.6156 19.9184
rtibia 22.6114
rfoot -10.8645 -2.25988
rtoes 13.5701
lfemur -15.343 8.20034 -17.7841
ltibia 20.1289
lfoot -8.50955 4.21306
ltoes -1.6127
581
root 0.568956 17.7144 2.28514 6.23419 -0.737468 -1.65429
lowerback 0.238572 -0.412933 -0.484964
upperback 3.20508 -0.588121 1.65798
thorax 3.18065 -0.332537 1.96183
lowerneck -11.9832 0.144052 -1.89967
upperneck 36.5712 0.239897 1.29683
head 14.6067 0.00720901 0.909089
rclavicle 3.926e-015 1.78906e-015
rhumerus -21.586 -4.52429 -85.1274
rradius 35.5841
rwrist 22.4705
rhand -19.7833 -26.319
rfingers 7.12502
rthumb 6.54904 -56.1978
lclavicle 3.926e-015 1.78906e-015
lhumerus -14.9014 -7.43721 88.4659
lradius 27.9237
lwrist 12.418
lhand -26.5633 -5.87264
lfingers 7.12502
lthumb 0.00172612 24.1071
rfemur -16.6573 -2.60834 19.9078
rtibia 22.5994
rfoot -10.8668 -2.26417
rtoes 13.53
lfemur -15.2992 8.20316 -17.7896
ltibia 20.1127
lfoot -8.51398 4.21933
ltoes -1.61691
582
root 0.570556 17.7144 2.28779 6.21102 -0.750727 -1.65145
lowerback 0.216205 -0.414855 -0.476524
upperback 3.20743 -0.590854 1.65446
thorax 3.19566 -0.333717 1.95325
lowerneck -11.9777 0.144776 -1.90258
upperneck 36.5878 0.239035 1.3031
head 14.6133 0.00706747 0.912206
rclavicle 5.96354e-016 1.72943e-014
rhumerus -21.5911 -4.56362 -85.1226
rradius 35.5298
rwrist 22.5296
rhand -19.7531 -26.349
rfingers 7.12502
rthumb 6.57817 -56.2269
lclavicle 5.96354e-016 1.72943e-014
lhumerus -14.9369 -7.44612 88.4948
lradius 27.8524
lwrist 12.3819
lhand -26.5596 -5.85686
lfingers 7.12502
lthumb 0.0053056 24.1229
rfemur -16.6161 -2.59802 19.8969
rtibia 22.5871
rfoot -10.8706 -2.26741
rtoes 13.4912
lfemur -15.2504 8.20571 -17.7944
ltibia 20.0939
lfoot -8.51716 4.22977
ltoes -1.61878
583
root 0.572092 17.7145 2.29086 6.18918 -0.767041 -1.64874
lowerback 0.189332 -0.415372 -0.467429
upperback 3.21116 -0.591718 1.64921
thorax 3.21455 -0.333947 1.94253
lowerneck -11.9781 0.145975 -1.90093
upperneck 36.609 0.238314 1.30777
head 14.6234 0.00736987 0.913953
rclavicle -7.95139e-015 2.66371e-014
rhumerus -21.6012 -4.62055 -85.1139
rradius 35.4489
rwrist 22.6021
rhand -19.718 -26.3792
rfingers 7.12502
rthumb 6.61202 -56.256
lclavicle -7.95139e-015 2.66371e-014
lhumerus -14.9802 -7.4498 88.5237
lradius 27.7585
lwrist 12.3303
lhand -26.551 -5.85393
lfingers 7.12502
lthumb 0.013619 24.1258
rfemur -16.5748 -2.58648 19.8863
rtibia 22.5744
rfoot -10.8758 -2.26811
rtoes 13.4636
lfemur -15.2001 8.20841 -17.7987
ltibia 20.0736
lfoot -8.52063 4.24236
ltoes -1.62207
